# xmcd
#
# Track frame offsets: 
#        150
#        13784
#        28333
#        45062
#        62814
#        73024
#        85034
#        98016
#        106197
#        120343
#        138347
#        148028
#        164804
#        177350
#        189620
#        199054
#        220979
#        230960
#
# Disc length: 3231 seconds
#
# Revision: 0
# Processed by: cddbd v1.5.2PL0 Copyright (c) Steve Scherf et al.
# Submitted via: ExactAudioCopy v0.99pb4
#
DISCID=040c9d12
DTITLE=Various Artist - Doin' It Bone's Way
DYEAR=2000
DGENRE=Blues
TTITLE0=T-Bone Walker - Back On The Scene
TTITLE1=T-Bone Walker - Good Boy
TTITLE2=T-Bone Walker - No Do Right
TTITLE3=T-Bone Walker - Please Come Back To Me
TTITLE4=T-Bone Walker - Natural Ball
TTITLE5=T-Bone Walker - Baby, She's A Hit
TTITLE6=T-Bone Walker - Treat Your Daddy Well
TTITLE7=T-Bone Walker - Further Up The Road
TTITLE8=T-Bone Walker - Why Won't My Baby Treat Me Right
TTITLE9=T-Bone Walker - Afraid To Close My Eyes
TTITLE10=T-Bone Walker Jr. - Midnight Bells Are Ringing
TTITLE11=Texas Fats - T-Bone Shuffle
TTITLE12=Sideways Sumlin - No Do Right
TTITLE13=Sideways Sumlin - Two Picks And A Bone
TTITLE14=The Finns - Party Girl
TTITLE15=Joey Long And T-Bone Walker - I Used To Be A Good Boy
TTITLE16=T-Bone Walker - Spend One Night With Me
TTITLE17=Goree Carter - I've Got News For You
EXTD=
EXTT0=
EXTT1=
EXTT2=
EXTT3=
EXTT4=
EXTT5=
EXTT6=
EXTT7=
EXTT8=
EXTT9=
EXTT10=
EXTT11=
EXTT12=
EXTT13=
EXTT14=
EXTT15=
EXTT16=
EXTT17=
PLAYORDER=
